<svg width="60" height="60" viewBox="0 0 60 60" xmlns="http://www.w3.org/2000/svg"><title>arrow-up-circle</title><path d="M42.253 31.012a1.876 1.876 0 0 1-2.651 0l-7.727-7.743v19.856A1.877 1.877 0 0 1 30 45a1.877 1.877 0 0 1-1.875-1.875V23.269l-7.727 7.744a1.876 1.876 0 0 1-2.651 0 1.886 1.886 0 0 1 0-2.663l10.605-10.613c.45-.45 1.065-.58 1.648-.468.583-.113 1.198.019 1.648.469L42.253 28.35a1.886 1.886 0 0 1 0 2.662zM30 0C13.43 0 0 13.425 0 30s13.43 30 30 30 30-13.425 30-30S46.57 0 30 0z" fill="#E19C18" fill-rule="evenodd"/></svg>