<?xml version="1.0" encoding="UTF-8"?>
<svg width="60px" height="60px" viewBox="0 0 60 60" version="1.1" xmlns="http://www.w3.org/2000/svg" xmlns:xlink="http://www.w3.org/1999/xlink">
    <title>arrow-up-circle</title>
    <g id="Page-1" stroke="none" stroke-width="1" fill="none" fill-rule="evenodd">
        <g id="Desktop-HD" transform="translate(-1888.000000, -985.000000)" fill="#E19C18">
            <g id="arrow-up-circle" transform="translate(1888.000000, 985.000000)">
                <path d="M42.253125,31.0125 C41.521875,31.74375 40.335,31.74375 39.601875,31.0125 L31.875,23.26875 L31.875,43.125 C31.875,44.15625 31.036875,45 30,45 C28.963125,45 28.125,44.15625 28.125,43.125 L28.125,23.26875 L20.398125,31.0125 C19.665,31.74375 18.47625,31.74375 17.746875,31.0125 C17.01375,30.2625 17.01375,29.08125 17.746875,28.35 L28.351875,17.7375 C28.801875,17.2875 29.416875,17.15625 30,17.26875 C30.583125,17.15625 31.198125,17.2875 31.648125,17.7375 L42.253125,28.35 C42.98625,29.08125 42.98625,30.2625 42.253125,31.0125 L42.253125,31.0125 Z M30,0 C13.430625,0 0,13.425 0,30 C0,46.575 13.430625,60 30,60 C46.569375,60 60,46.575 60,30 C60,13.425 46.569375,0 30,0 L30,0 Z"></path>
            </g>
        </g>
    </g>
</svg>